<svg xmlns="http://www.w3.org/2000/svg" width="158.6" height="181.75" viewBox="0 0 158.6 181.75"><defs><style>.a,.b{fill:#fff;}.b{opacity:0.25;}.c{fill:#f04e4c;}</style></defs><title>logo_dark_bg</title><path class="a" d="M762.46,344.76v84.67a1.63,1.63,0,0,1-.8,1.39l-73.34,42.36a1.6,1.6,0,0,1-2.19-2.19l73.34-127A1.6,1.6,0,0,1,762.46,344.76Z" transform="translate(-603.86 -293.25)"/><path class="b" d="M759.47,344,686.13,471a1.6,1.6,0,0,1-3-.8V385.5a1.6,1.6,0,0,1,.81-1.39l73.34-42.33A1.6,1.6,0,0,1,759.47,344Z" transform="translate(-603.86 -293.25)"/><path class="a" d="M756.48,338.79H609.84a1.6,1.6,0,0,1-.81-3l73.31-42.33a1.6,1.6,0,0,1,1.61,0l73.33,42.33A1.6,1.6,0,0,1,756.48,338.79Z" transform="translate(-603.86 -293.25)"/><path class="c" d="M603.86,341.56v87.87a1.63,1.63,0,0,0,.8,1.39l76.08,44a1.6,1.6,0,0,0,2.4-1.38V385.5a1.59,1.59,0,0,0-.8-1.39l-76.08-43.93A1.6,1.6,0,0,0,603.86,341.56Z" transform="translate(-603.86 -293.25)"/></svg>