<?xml version="1.0" encoding="utf-8"?>
<!-- Generator: Adobe Illustrator 22.0.1, SVG Export Plug-In . SVG Version: 6.00 Build 0)  -->
<svg version="1.1" id="Layer_1" xmlns="http://www.w3.org/2000/svg" xmlns:xlink="http://www.w3.org/1999/xlink" x="0px" y="0px"
	 viewBox="0 0 173.9 34.3" style="enable-background:new 0 0 173.9 34.3;" xml:space="preserve">
<style type="text/css">
	.st0{fill:#FFFFFF;}
	.st1{opacity:0.65;fill:#FFFFFF;}
	.st2{opacity:0.25;fill:#FFFFFF;enable-background:new    ;}
</style>
<title>logo@1x</title>
<desc>Created with Sketch.</desc>
<g>
	<g>
		<path class="st0" d="M7.9,26.5c-2.4,0-4.2-0.6-5.5-1.7s-1.9-2.8-1.9-5V9.2c0-0.4,0.4-0.8,0.8-0.8h2.9C4.6,8.4,5,8.8,5,9.2v10.2
			c0,1.2,0.2,2.1,0.7,2.7S6.9,23,8,23c1,0,1.8-0.3,2.2-0.9c0.5-0.6,0.7-1.5,0.7-2.8V9.2c0-0.4,0.4-0.8,0.8-0.8h2.9
			c0.4,0,0.8,0.4,0.8,0.8v10.5c0,2.2-0.6,3.8-1.9,5C12.2,25.9,10.3,26.5,7.9,26.5z"/>
		<path class="st0" d="M30.9,19.2c0,2.1-0.5,3.8-1.6,5.2c-1.1,1.3-2.4,2-4,2c-0.7,0-1.2-0.1-1.7-0.2c-0.5-0.2-1-0.4-1.6-0.7v4.8
			c0,0.4-0.4,0.8-0.8,0.8h-2.6c-0.4,0-0.8-0.4-0.8-0.8V13.6c0-0.4,0.4-0.8,0.8-0.8h2.7c0.3,0,0.6,0.3,0.6,0.6c0,0.5,0,0.8,0,0.8
			c0.6-0.5,1.2-0.9,1.9-1.3s1.4-0.5,2.2-0.5c1.5,0,2.7,0.6,3.6,1.8C30.5,15.5,30.9,17.1,30.9,19.2z M26.7,19.3
			c0-1.3-0.2-2.2-0.6-2.8c-0.4-0.6-1-0.9-1.9-0.9c-0.4,0-0.7,0.1-1.1,0.2s-0.7,0.3-1.1,0.5V23c0.2,0.1,0.5,0.2,0.7,0.2
			c0.3,0,0.6,0.1,0.9,0.1c1,0,1.8-0.3,2.3-1S26.7,20.6,26.7,19.3z"/>
		<path class="st0" d="M44.7,24.6c0,1.2-0.2,2.3-0.5,3.1c-0.4,0.9-0.8,1.5-1.5,2c-0.6,0.5-1.4,0.8-2.2,1.1c-0.9,0.2-1.8,0.3-2.9,0.3
			c-0.9,0-1.7-0.1-2.5-0.2c-0.5-0.1-1-0.2-1.5-0.3c-0.4-0.1-0.6-0.4-0.6-0.8v-2.3c0-0.3,0.2-0.5,0.5-0.4c0,0,0.4,0.2,0.7,0.3
			c0.3,0.1,0.6,0.2,0.8,0.3c0.3,0.1,0.7,0.2,1,0.2c0.3,0.1,0.7,0.1,1,0.1c0.7,0,1.3-0.1,1.8-0.2s0.8-0.4,1.1-0.6
			c0.2-0.3,0.4-0.6,0.5-1s0.1-0.8,0.1-1.4v-0.2c-0.5,0.4-1,0.7-1.6,1C38.3,25.8,37.7,26,37,26c-1.7,0-3.1-0.6-4-1.7
			s-1.4-2.8-1.4-5.1c0-1,0.1-2,0.4-2.8s0.7-1.5,1.2-2.1s1.1-1,1.8-1.3s1.4-0.5,2.2-0.5c0.7,0,1.3,0.1,1.8,0.3s1,0.4,1.5,0.7l0.1-0.2
			c0.1-0.2,0.2-0.4,0.6-0.4h2.7c0.4,0,0.8,0.4,0.8,0.8C44.7,13.7,44.7,24.6,44.7,24.6z M40.5,21.9v-6c-0.2-0.1-0.5-0.2-0.8-0.2
			c-0.3-0.1-0.6-0.1-0.9-0.1c-1,0-1.7,0.3-2.2,1c-0.5,0.6-0.8,1.5-0.8,2.7c0,0.6,0,1.1,0.1,1.5s0.2,0.8,0.4,1.1
			c0.2,0.3,0.5,0.5,0.8,0.7s0.7,0.2,1.2,0.2c0.4,0,0.7-0.1,1.1-0.2C39.9,22.3,40.2,22.1,40.5,21.9z"/>
		<path class="st0" d="M56.2,16.2c0,0.1-0.1,0.5-0.4,0.4c-0.2,0-0.3-0.1-0.6-0.1s-0.6,0-1,0s-0.9,0.1-1.4,0.2s-0.9,0.3-1.4,0.5v8.1
			c0,0.4-0.4,0.8-0.8,0.8H48c-0.4,0-0.8-0.4-0.8-0.8V13.6c0-0.4,0.4-0.8,0.8-0.8h2.6c0.4,0,0.8,0.4,0.8,0.8v1.1
			c0.2-0.2,0.5-0.4,0.8-0.7s0.6-0.5,0.9-0.6c0.3-0.2,0.7-0.3,1.1-0.5c0.4-0.1,0.8-0.2,1.1-0.2c0.1,0,0.3,0,0.5,0s0.4,0.2,0.4,0.6
			C56.2,13.5,56.2,16.1,56.2,16.2z"/>
		<path class="st0" d="M64.5,24.7c-0.3,0.2-0.5,0.5-0.8,0.6c-0.2,0.2-0.5,0.4-0.9,0.6s-0.7,0.3-1.1,0.4c-0.4,0.1-0.8,0.1-1.5,0.1
			c-1.2,0-2.2-0.4-2.9-1.2c-0.8-0.8-1.2-1.8-1.2-3c0-1,0.2-1.8,0.6-2.4c0.4-0.6,1-1.1,1.7-1.4c0.8-0.4,1.6-0.6,2.7-0.8
			s2.2-0.3,3.4-0.3v-0.1c0-0.7-0.3-1.2-0.8-1.5c-0.5-0.3-1.4-0.4-2.4-0.4c-0.5,0-1.1,0.1-1.7,0.3c-0.7,0.2-1.3,0.4-1.7,0.6
			c-0.4,0.2-0.6,0.1-0.6-0.2v-2.2c0-0.4,0.2-0.7,0.6-0.8c0.4-0.1,0.8-0.2,1.3-0.3c0.7-0.1,1.4-0.2,2.1-0.2c2.6-0.1,4.5,0.3,5.7,1.1
			c1,0.8,1.6,1.9,1.6,3.5v8.3c0,0.4-0.4,0.8-0.8,0.8c0,0-2.3,0-2.6,0c-0.3,0-0.7-0.2-0.7-0.6C64.5,25,64.5,24.7,64.5,24.7z
			 M64.5,22.6v-2.8c-0.7,0.1-1.3,0.1-1.7,0.2s-0.9,0.2-1.3,0.3c-0.4,0.1-0.6,0.3-0.8,0.6c-0.2,0.3-0.3,0.6-0.3,1
			c0,0.6,0.2,1.1,0.5,1.3c0.3,0.2,0.8,0.4,1.5,0.4c0.4,0,0.7-0.1,1.1-0.2S64.2,22.9,64.5,22.6z"/>
		<path class="st0" d="M83.2,25.3c0,0.4-0.4,0.8-0.8,0.8c0,0-2.3,0-2.7,0s-0.6-0.3-0.6-0.7c0-0.4,0-0.6,0-0.6
			c-0.3,0.2-0.6,0.5-0.9,0.7c-0.3,0.3-0.6,0.4-0.9,0.6s-0.7,0.3-1,0.4s-0.7,0.1-1.2,0.1c-1.5,0-2.7-0.6-3.6-1.9s-1.3-2.9-1.3-5
			c0-1.2,0.1-2.2,0.5-3c0.3-0.9,0.7-1.6,1.2-2.2c0.5-0.6,1.1-1.1,1.9-1.4c0.7-0.3,1.5-0.5,2.3-0.4c0.6,0,1.1,0.1,1.4,0.2
			c0.4,0.1,1,0.4,1.6,0.7V8.4c0-0.4,0.4-0.8,0.8-0.8h2.6c0.4,0,0.8,0.4,0.8,0.8v16.9H83.2z M79.1,22.4v-6.5
			c-0.2-0.1-0.5-0.2-0.8-0.3s-0.6-0.1-0.9-0.1c-1,0-1.7,0.3-2.2,1c-0.5,0.7-0.8,1.7-0.8,2.9c0,1.3,0.2,2.3,0.6,2.8
			c0.4,0.6,1,0.9,1.9,0.9c0.4,0,0.7-0.1,1.1-0.2C78.4,22.8,78.8,22.6,79.1,22.4z"/>
		<path class="st0" d="M92.6,26.4c-2.5,0-4.4-0.6-5.8-1.8s-2-2.9-2-5.1s0.6-3.9,1.9-5.2c1.2-1.3,3-1.9,5.2-1.9c2,0,3.6,0.6,4.6,1.6
			c1,1.1,1.5,2.7,1.5,4.7v0.4c0,0.8-0.6,1.1-1.2,1.1s-7.9,0-7.9,0c0,0.6,0.2,1.1,0.4,1.5c0.2,0.4,0.5,0.7,0.9,1
			c0.4,0.2,0.8,0.4,1.2,0.5c0.5,0.1,1,0.2,1.6,0.2c0.5,0,1-0.1,1.4-0.2c0.5-0.1,0.9-0.2,1.3-0.4c0.3-0.2,0.7-0.3,0.9-0.5
			c0.3-0.2,0.4-0.2,0.5-0.3c0.2-0.1,0.6-0.1,0.6,0.6c0,0.6,0,1.6,0,2.2c0,0.4-0.3,0.6-0.5,0.7s-0.2,0.1-0.5,0.2s-0.7,0.2-1.2,0.4
			c-0.5,0.1-0.9,0.2-1.4,0.3C93.9,26.4,93.3,26.4,92.6,26.4z M94,17.7c0-0.9-0.2-1.5-0.6-2c-0.4-0.5-1-0.7-1.8-0.7s-1.4,0.2-1.9,0.7
			c-0.5,0.5-0.7,1.1-0.8,2H94z"/>
	</g>
	<g>
		<path class="st0" d="M146.5,25.4h-1.1c-0.3,0-0.6-0.3-0.6-0.6v-7c0-0.6,0-1.2-0.1-1.7c-0.1-0.5-0.2-0.9-0.3-1.3
			c-0.2-0.3-0.4-0.6-0.8-0.7c-0.3-0.2-0.8-0.2-1.3-0.2c-0.6,0-1.1,0.1-1.7,0.4c-0.5,0.3-1,0.6-1.5,1c-0.1,0.1-0.2,0.3-0.2,0.4
			c0,1.3,0,7.2,0,9.1c0,0.3-0.3,0.6-0.6,0.6h-1.1c-0.3,0-0.6-0.3-0.6-0.6V7.5c0-0.3,0.3-0.6,0.6-0.6h1.1c0.3,0,0.6,0.3,0.6,0.6v6.1
			c0.8-0.7,1.7-1.3,2.5-1.6c0.4-0.2,0.8-0.2,1.2-0.3c1.5-0.1,2.6,0.3,3.4,1.3c0.7,0.9,1.1,2.1,1.1,3.7v8
			C147,25.2,146.8,25.4,146.5,25.4z"/>
		<path class="st0" d="M159.9,24.8c0,0.3-0.3,0.6-0.6,0.6c0,0-0.7,0-1.1,0s-0.6-0.2-0.6-0.6s0-0.9,0-0.9c-0.7,0.6-1.3,1.1-2,1.4
			c-0.6,0.3-1.3,0.5-2.1,0.5c-0.6,0-1.1-0.1-1.6-0.3c-0.5-0.2-1-0.5-1.3-0.9c-0.4-0.4-0.7-0.9-0.9-1.6c-0.2-0.6-0.3-1.4-0.3-2.3v-8
			c0-0.3,0.3-0.6,0.6-0.6h1.1c0.3,0,0.6,0.3,0.6,0.6v7c0,0.7,0,1.3,0.1,1.8s0.2,0.9,0.4,1.2c0.2,0.3,0.4,0.6,0.7,0.7
			c0.3,0.2,0.8,0.2,1.3,0.2s1.1-0.2,1.7-0.5c0.5-0.3,1-0.6,1.5-1c0.1-0.1,0.2-0.3,0.2-0.4v-9.1c0-0.3,0.3-0.6,0.6-0.6h1.1
			c0.3,0,0.6,0.3,0.6,0.6V24.8z"/>
		<path class="st0" d="M173.6,18.6c0,2.2-0.5,3.9-1.6,5.2s-2.4,2-4,2c-0.7,0-1.3-0.1-1.8-0.3c-0.5-0.2-1-0.4-1.5-0.7
			c0,0,0,0-0.1,0.2c0,0.2-0.1,0.4-0.4,0.4c-0.3,0-1.2,0-1.2,0c-0.3,0-0.6-0.3-0.6-0.6V7.5c0-0.3,0.3-0.6,0.6-0.6h1.1
			c0.3,0,0.6,0.3,0.6,0.6v6c0.6-0.5,1.2-0.9,1.8-1.3c0.7-0.3,1.4-0.5,2.2-0.5c1.5,0,2.7,0.6,3.5,1.8
			C173.2,14.8,173.6,16.4,173.6,18.6z M171.3,18.7c0-1.6-0.2-2.8-0.7-3.6s-1.3-1.2-2.3-1.2c-0.6,0-1.2,0.1-1.8,0.4
			c-0.5,0.2-1,0.5-1.5,0.9c-0.1,0.1-0.2,0.3-0.2,0.5v7c0,0.2,0.1,0.4,0.3,0.5c0.4,0.2,0.8,0.3,1.2,0.4s0.9,0.2,1.4,0.2
			c1.1,0,2-0.4,2.7-1.2C171,21.8,171.3,20.5,171.3,18.7z"/>
	</g>
	<path class="st1" d="M131.8,9.8v15.8c0,0.1-0.1,0.2-0.1,0.3L118,33.7c-0.3,0.2-0.6-0.1-0.4-0.4l13.7-23.7
		C131.4,9.4,131.8,9.5,131.8,9.8z"/>
	<path class="st2" d="M131.3,9.6l-13.7,23.7c-0.2,0.3-0.6,0.2-0.6-0.1V17.4c0-0.1,0.1-0.2,0.1-0.3l13.7-7.9
		C131.1,9.1,131.4,9.4,131.3,9.6z"/>
	<path class="st1" d="M130.7,8.7h-27.3c-0.3,0-0.4-0.4-0.1-0.6L117,0.2c0.1-0.1,0.2-0.1,0.3,0L131,8.1C131.1,8.3,131,8.7,130.7,8.7z
		"/>
	<path class="st0" d="M102.2,9.2v16.4c0,0.1,0.1,0.2,0.1,0.3l14.2,8.2c0.2,0.1,0.4,0,0.4-0.3V17.4c0-0.1-0.1-0.2-0.1-0.3l-14.2-8.2
		C102.5,8.8,102.2,9,102.2,9.2z"/>
</g>
</svg>
